# xmcd CD database file
#
# Track frame offsets:
#	150
#	12457
#	24507
#	34696
#	50385
#	61767
#	73485
#	83804
#	98024
#	111698
#	125544
#	138584
#	152782
#	165226
#	178755
#	193160
#	207060
#	221551
#	235773
#
# Disc length: 3317 seconds
#
# Revision: 1
# Processed by: cddbd v1.5.1PL2 Copyright (c) Steve Scherf et al.
# Submitted via: CDex 1.51
#
DISCID=0e0cf313
DTITLE=John Lee Hooker - Cd2
DYEAR=2005
DGENRE=Blues
TTITLE0=High Priced Woman
TTITLE1=Find Me A Woman
TTITLE2=Hey Boogie
TTITLE3=Hey Baby
TTITLE4=Misbelieving Baby
TTITLE5=My Baby Put Me Down
TTITLE6=Feed Her All Night
TTITLE7=Catfish
TTITLE8=Bluebird
TTITLE9=I Don't Want Your Money
TTITLE10=Do My Baby Think Of Me
TTITLE11=Goin' South
TTITLE12=I'm Mad
TTITLE13=Love Blues
TTITLE14=Blues For Big Town
TTITLE15=Louise
TTITLE16=Four Woman In My Live
TTITLE17=I Need Love So Bad
TTITLE18=I Need Lovin'
EXTD=YEAR: 2005
EXTT0=
EXTT1=
EXTT2=
EXTT3=
EXTT4=
EXTT5=
EXTT6=
EXTT7=
EXTT8=
EXTT9=
EXTT10=
EXTT11=
EXTT12=
EXTT13=
EXTT14=
EXTT15=
EXTT16=
EXTT17=
EXTT18=
PLAYORDER=
